<svg xmlns="http://www.w3.org/2000/svg" viewBox="0 0 96 96" fill="none">
  <defs>
    <linearGradient id="blue" x1="22" y1="18" x2="74" y2="76" gradientUnits="userSpaceOnUse"><stop stop-color="#1E76FF"/><stop offset="1" stop-color="#17C8DC"/></linearGradient>
    <linearGradient id="orange" x1="20" y1="18" x2="76" y2="78" gradientUnits="userSpaceOnUse"><stop stop-color="#FFB45F"/><stop offset="1" stop-color="#F97316"/></linearGradient>
    <linearGradient id="purple" x1="20" y1="18" x2="76" y2="78" gradientUnits="userSpaceOnUse"><stop stop-color="#AE96FF"/><stop offset="1" stop-color="#7557F6"/></linearGradient>
    <linearGradient id="gold" x1="24" y1="20" x2="72" y2="74" gradientUnits="userSpaceOnUse"><stop stop-color="#FFD66B"/><stop offset="1" stop-color="#F59E0B"/></linearGradient>
    <linearGradient id="green" x1="20" y1="18" x2="76" y2="78" gradientUnits="userSpaceOnUse"><stop stop-color="#5DD9A5"/><stop offset="1" stop-color="#17B376"/></linearGradient>
  </defs>
  <ellipse cx="48" cy="82" rx="24" ry="5" fill="#061F38" opacity="0.12"/>
  <g>
    <rect x="27" y="38" width="42" height="31" rx="12" fill="url(#purple)"/>
    <path d="M25 35h46v14H25V35Z" fill="#AE96FF"/>
    <path d="M48 35v34" stroke="white" stroke-width="6" opacity="0.92"/>
    <path d="M48 36c-8-12-19-9-16 0 2 7 11 4 16 0Zm0 0c8-12 19-9 16 0-2 7-11 4-16 0Z" fill="#7557F6"/>
    <circle cx="67" cy="29" r="9" fill="#FFD66B"/>
    <path d="M67 24v10M62 29h10" stroke="white" stroke-width="3.5" stroke-linecap="round"/>
  </g>
</svg>