<svg xmlns="http://www.w3.org/2000/svg" width="96" height="96" viewBox="0 0 96 96" fill="none" role="img" aria-label="TapGo Ojek Motor 3D service icon">
  <title>Ojek Motor</title>
  <defs>
    <linearGradient id="blue" x1="18" y1="16" x2="78" y2="82" gradientUnits="userSpaceOnUse"><stop stop-color="#45C5FF"/><stop offset="0.54" stop-color="#1E7BFF"/><stop offset="1" stop-color="#1754D8"/></linearGradient>
    <linearGradient id="cyan" x1="18" y1="16" x2="78" y2="82" gradientUnits="userSpaceOnUse"><stop stop-color="#5BE7DE"/><stop offset="1" stop-color="#0FA6B6"/></linearGradient>
    <linearGradient id="green" x1="18" y1="16" x2="78" y2="82" gradientUnits="userSpaceOnUse"><stop stop-color="#72E6A4"/><stop offset="1" stop-color="#16A66A"/></linearGradient>
    <linearGradient id="orange" x1="18" y1="16" x2="78" y2="82" gradientUnits="userSpaceOnUse"><stop stop-color="#FFD15D"/><stop offset="0.5" stop-color="#FF8A2A"/><stop offset="1" stop-color="#F05A24"/></linearGradient>
    <linearGradient id="gold" x1="18" y1="16" x2="78" y2="82" gradientUnits="userSpaceOnUse"><stop stop-color="#FFE58A"/><stop offset="0.56" stop-color="#FFBE25"/><stop offset="1" stop-color="#D88A06"/></linearGradient>
    <linearGradient id="purple" x1="18" y1="16" x2="78" y2="82" gradientUnits="userSpaceOnUse"><stop stop-color="#C8B5FF"/><stop offset="1" stop-color="#6D55F2"/></linearGradient>
    <linearGradient id="red" x1="18" y1="16" x2="78" y2="82" gradientUnits="userSpaceOnUse"><stop stop-color="#FF9D8D"/><stop offset="1" stop-color="#EC3F54"/></linearGradient>
    <linearGradient id="slate" x1="18" y1="16" x2="78" y2="82" gradientUnits="userSpaceOnUse"><stop stop-color="#A8B8CC"/><stop offset="1" stop-color="#27435E"/></linearGradient>
    <linearGradient id="white" x1="24" y1="14" x2="72" y2="76" gradientUnits="userSpaceOnUse"><stop stop-color="#FFFFFF"/><stop offset="1" stop-color="#E9F3FF"/></linearGradient>

  </defs>
  <ellipse cx="48" cy="82" rx="27" ry="6" fill="#07213D" opacity="0.14"/>

  <circle cx="27" cy="68" r="11" fill="url(#white)" stroke="#2068FF" stroke-width="6"/>
  <circle cx="70" cy="68" r="11" fill="url(#white)" stroke="#2068FF" stroke-width="6"/>
  <path d="M29 66l15-22h18l8 22H51L39 55" stroke="url(#blue)" stroke-width="8" stroke-linecap="round" stroke-linejoin="round" fill="none"/>
  <path d="M41 44h19l-4-10H44Z" fill="url(#orange)"/>
  <path d="M61 42l16-6" stroke="#FF7657" stroke-width="7" stroke-linecap="round"/>
  <circle cx="49" cy="35" r="7" fill="url(#gold)"/>

</svg>
